/* XPM */
static char *_c5fe787591d4c47e2831f8a1cbe53b0HIOFBR3ML4bLYgob[] = {
/* columns rows colors chars-per-pixel */
"64 72 256 2 ",
"   c black",
".  c blue",
"X  c green",
"o  c red",
"O  c cyan",
"+  c yellow",
"@  c magenta",
"#  c white",
"$  c #7B7B7B",
"%  c #7B7B7B",
"&  c #7B7B7B",
"*  c #7B7B7B",
"=  c #7B7B7B",
"-  c #7B7B7B",
";  c #7B7B7B",
":  c #7B7B7B",
">  c #7B7B7B",
",  c #7B7B7B",
"<  c #7B7B7B",
"1  c #7B7B7B",
"2  c #7B7B7B",
"3  c #7B7B7B",
"4  c #7B7B7B",
"5  c #7B7B7B",
"6  c #7B7B7B",
"7  c #7B7B7B",
"8  c #7B7B7B",
"9  c #7B7B7B",
"0  c #7B7B7B",
"q  c #7B7B7B",
"w  c #7B7B7B",
"e  c #7B7B7B",
"r  c #7B7B7B",
"t  c #7B7B7B",
"y  c #7B7B7B",
"u  c #7B7B7B",
"i  c #7B7B7B",
"p  c #7B7B7B",
"a  c #7B7B7B",
"s  c #7B7B7B",
"d  c #7B7B7B",
"f  c #7B7B7B",
"g  c #7B7B7B",
"h  c #7B7B7B",
"j  c #7B7B7B",
"k  c #7B7B7B",
"l  c #7B7B7B",
"z  c #7B7B7B",
"x  c #7B7B7B",
"c  c #7B7B7B",
"v  c #7B7B7B",
"b  c #7B7B7B",
"n  c #7B7B7B",
"m  c #7B7B7B",
"M  c #7B7B7B",
"N  c #7B7B7B",
"B  c #7B7B7B",
"V  c #7B7B7B",
"C  c #7B7B7B",
"Z  c #7B7B7B",
"A  c #7B7B7B",
"S  c #7B7B7B",
"D  c #7B7B7B",
"F  c #7B7B7B",
"G  c #7B7B7B",
"H  c #7B7B7B",
"J  c #7B7B7B",
"K  c #7B7B7B",
"L  c #7B7B7B",
"P  c #7B7B7B",
"I  c #7B7B7B",
"U  c #7B7B7B",
"Y  c #7B7B7B",
"T  c #7B7B7B",
"R  c #7B7B7B",
"E  c #7B7B7B",
"W  c #7B7B7B",
"Q  c #7B7B7B",
"!  c #7B7B7B",
"~  c #7B7B7B",
"^  c #7B7B7B",
"/  c #7B7B7B",
"(  c #7B7B7B",
")  c #7B7B7B",
"_  c #7B7B7B",
"`  c #7B7B7B",
"'  c #7B7B7B",
"]  c #7B7B7B",
"[  c #7B7B7B",
"{  c #7B7B7B",
"}  c #7B7B7B",
"|  c #7B7B7B",
" . c #7B7B7B",
".. c #7B7B7B",
"X. c #7B7B7B",
"o. c #7B7B7B",
"O. c #7B7B7B",
"+. c #7B7B7B",
"@. c #7B7B7B",
"#. c #7B7B7B",
"$. c #7B7B7B",
"%. c #7B7B7B",
"&. c #7B7B7B",
"*. c #7B7B7B",
"=. c #7B7B7B",
"-. c #7B7B7B",
";. c #7B7B7B",
":. c #7B7B7B",
">. c #7B7B7B",
",. c #7B7B7B",
"<. c #7B7B7B",
"1. c #7B7B7B",
"2. c #7B7B7B",
"3. c #7B7B7B",
"4. c #7B7B7B",
"5. c #7B7B7B",
"6. c #7B7B7B",
"7. c #7B7B7B",
"8. c #7B7B7B",
"9. c #7B7B7B",
"0. c #7B7B7B",
"q. c #7B7B7B",
"w. c #7B7B7B",
"e. c #7B7B7B",
"r. c #7B7B7B",
"t. c #7B7B7B",
"y. c #7B7B7B",
"u. c #7B7B7B",
"i. c #7B7B7B",
"p. c #7B7B7B",
"a. c #7B7B7B",
"s. c #7B7B7B",
"d. c #7B7B7B",
"f. c #7B7B7B",
"g. c #7B7B7B",
"h. c #7B7B7B",
"j. c #7B7B7B",
"k. c #7B7B7B",
"l. c #7B7B7B",
"z. c #7B7B7B",
"x. c #7B7B7B",
"c. c #7B7B7B",
"v. c #7B7B7B",
"b. c #7B7B7B",
"n. c #7B7B7B",
"m. c #7B7B7B",
"M. c #7B7B7B",
"N. c #7B7B7B",
"B. c #7B7B7B",
"V. c #7B7B7B",
"C. c #7B7B7B",
"Z. c #7B7B7B",
"A. c #7B7B7B",
"S. c #7B7B7B",
"D. c #7B7B7B",
"F. c #7B7B7B",
"G. c #7B7B7B",
"H. c #7B7B7B",
"J. c #7B7B7B",
"K. c #7B7B7B",
"L. c #7B7B7B",
"P. c #7B7B7B",
"I. c #7B7B7B",
"U. c #7B7B7B",
"Y. c #7B7B7B",
"T. c #7B7B7B",
"R. c #7B7B7B",
"E. c #7B7B7B",
"W. c #7B7B7B",
"Q. c #7B7B7B",
"!. c #7B7B7B",
"~. c #F6ACAC",
"^. c #FFFFB4",
"/. c #A46A39",
"(. c #5A4A31",
"). c #FFBD9C",
"_. c #FFD5BD",
"`. c #6A4120",
"'. c #100800",
"]. c #525239",
"[. c #626262",
"{. c #312910",
"}. c #735A39",
"|. c #101010",
" X c #413118",
".X c #AC947B",
"XX c gray32",
"oX c #181008",
"OX c #5A6241",
"+X c #313920",
"@X c #947B62",
"#X c #625231",
"$X c #414A31",
"%X c #103108",
"&X c #B4B4B4",
"*X c #AC7B18",
"=X c #202020",
"-X c gray3",
";X c #393939",
":X c #6A5241",
">X c #836A4A",
",X c #6A7352",
"<X c #A48B73",
"1X c #6A6A6A",
"2X c #414141",
"3X c #B49C83",
"4X c #392910",
"5X c #9C7B6A",
"6X c #523929",
"7X c #181818",
"8X c #7B7B62",
"9X c #394129",
"0X c #524131",
"qX c gray16",
"wX c #CDCDCD",
"eX c #735A4A",
"rX c #BDA48B",
"tX c #5A4120",
"yX c #9C5A10",
"uX c #9C836A",
"iX c gray58",
"pX c #C59C29",
"aX c #523918",
"sX c #7B5229",
"dX c #9C8362",
"fX c #7B7B7B",
"gX c gray74",
"hX c gray29",
"jX c #836A52",
"kX c #EE9494",
"lX c #4A3920",
"zX c #4A3118",
"xX c #D5D5D5",
"cX c gray45",
"vX c #626A4A",
"bX c #8B8B8B",
"nX c #8B7352",
"mX c #A4A4A4",
"MX c #292008",
"NX c gray61",
"BX c #D5BD41",
"VX c #734A29",
"CX c #835231",
"ZX c #C5C5C5",
"AX c #E6E6E6",
"SX c #FFDEC5",
"DX c #8B735A",
"FX c #838383",
"GX c #9C6239",
"HX c #FFCDB4",
"JX c gray87",
"KX c #5A5A5A",
"LX c #102008",
"PX c #8B5A31",
"IX c #834100",
"UX c #FFE6D5",
/* pixels */
"  [.FXXX].KXcX8X8X,X,XOX].FX2X  |.  |.  oX|.oXqX$X0X3X3XnX}. X>X X}.nX3X3X0X$XqXoX|.oX  |.  |.  2XFX].OX,X,X8X8XcXKX].XXFX[.  oX",
"oX,X8XOX].OX.X.X@XuX5XOX,XcXqX  [.bXOX.X~.rX).).kXdXnXnXeX:X$X[.$X:XeXnXnXdXkX).).rX~..XOXbX[.  qXcX,XOX5XuX@X.X.XOX].OX8X,XoX{.",
"  8X8X$X@X.X{.        -X    oX@XbX&X,X].uXdX@X>XnXuX<X8X$X:X:X2X:X:X$X8X<XuXnX>X@XdXuX].,X&XbX@XoX    -X        {..X@X$X8X8X  oX",
"  oX].8XgXMX  FX3XiX3XxX].  vX^.<X9X9X$X9X#XnXnXOX9X$X$X0X}.:X X:X}.0X$X$X9XOXnXnX#X9X$X9X9X<X^.vX  ].xX3XiX3XFX  MXgX8X].oX  oX",
"    qXZX&X    dX>X}.@X8X    dXnXMXoXoX].OX0XoXoX#X,X XMX0X}.:X0X:X}.0XMX X,X#XoXoX0XOX].oXoXMXnXdX    8X@X}.>XdX    &XZXqX    oX",
"      &XiX  oX@XeX:X,X$X      {.^.3XoX  qXeX X:X:X$X].0X XqXoXoXoXqX X0X].$X:X:X XeXqX  oX3X^.{.      $X,X:XeX@XoX  iX&X      oX",
"      &X8X  |.uXOX].,XqX      {.rXuXoX    jX5X;XOXvX%X      $XKX$X      %XvXOX;X5XjX    oXuXrX{.      qX,X].OXuX|.  8X&X      oX",
"      3XjX  |.8XOX].OX{.  oX|.|.OX9X    :XuX(.$ ].oXqX|.qX  ,XgX,X  qX|.qXoX].$ (.uX:X    9XOX|.|.oX  {.OX].OX8X|.  jX3X      oX",
"      8X,X  oX8X].].,XqX  {.gXOXoX|.|.|.bX[.iX0X  mXAX;X|.KX&X&X&XKX|.;XAXmX  0XiX[.bX|.|.|.oXOXgX{.  qX,X].].8XoX  ,X8X      oX",
"      ,XOX  |.8X2X2X,XqX  {.^..X$XiXqXLX8X8X.X    qX$ OXOXOXuX.XuXOXOXOX$ qX    .X8X8XLXqXiX$X.X^.{.  qX,X2X2X8X|.  OX,X      oX",
"      ].OX  oXjX].2XOXoX  |..XOX8XrX  MX,X3XOX      $XOX].{.8X,X8X{.].OX$X      OX3X,XMX  rX8XOX.X|.  oXOX2X].jXoX  OX].      oX",
"      $X[.    ,XOX$XOXoX  oXuXOX<XOX  $X8XrXoX   X  ;X$X].{.,X$X,X{.].$X;X   X  oXrX8X$X  OX<XOXuXoX  oXOX$XOX,X    [.$X      oX",
"      $XOX    8X].$X,XoX  oX<XeXbX$X  0X8XmX|.|.KXqXoX$XuX9XdX#XdX9XuX$XoXqXKX|.|.mX8X0X  $XbXeX<XoX  oX,X$X].8X    OX$X      oX",
"      2X,X    eX$XcX[.|.  oX.XuXrXjX  {.uX.XoX$X.XoX|.qX].{.@X.X@X{.].qX|.oX.X$XoX.XuX{.  jXrXuX.XoX  |.[.cX$XeX    ,X2X      oX",
"      XX8X    ].OXOXoX    oXgX&XrXuX  qXuXrX].      oX$XoX{.,X,X,X{.oX$XoX      ].rXuXqX  uXrX&XgXoX    oXOXOX].    8XXX      oX",
"      OX.X    cX{.  oXoX    ].2X5X9X  oXjX3X&X{.      oX X$X;X X;X$X XoX      {.&X3XjXoX  9X5X2X].    oXoX  {.cX    .XOX      oX",
"      $X.X    qX    {.>XoX  oXrXAXeX    eX,XrX&XqX    oX|.qXoX;XoXqX|.oX    qX&XrX,XeX    eXAXrXoX  oX>X{.    qX    .X$X      oX",
"      {.uX|.  oX|.qX].3X|.  oX,X@X{.    qX].jXrXrXqX{.mXqX          qXmX{.qXrXrXjX].qX    {.@X,XoX  |.3X].qX|.oX  |.uX{.      oX",
"      oX].oX    |.jX&X8X    oXqX{.oXoXqX{.oX$X8X8X.XrXFX7XoX{.  {.oX7XFXrX.X8X8X$XoX{.qXoXoX{.qXoX    8X&XjX|.    oX].oX      oX",
"      oX|.  |.{.oX$XgX&XoX  MXeXjX2X XoXoX  oX9XvXnX<XrX3X3XgXrXgX3X3XrX<XnXvX9XoX  oXoX X2XjXeXMX  oX&XgX$XoX{.|.  |.oX      oX",
"      oXoX  oX:XrXeX XeXqX    uX&X$XoXoXOXOXoX  oX$X}.}.}.}.0X#X0X}.}.}.}.$XoX  oXvXOXoXoX$X&XuX    qXeX XeXrX:XoX  oXoX      oX",
"      oXoXqX].0XjX.X$XoX|.    qX$X{.$X,X,X,XOX{.    oXoX9X0X XtX X0X9XoXoX    {.OX,X,X,X$X{.$XqX    |.oX$X.XjX0X].qXoXoX      oX",
"  oX|.    qX.XgXOX9X$XoX        oX0XOX$X0XeX,XOX2XqX                      qX2XOX,XeX0X$XOX0XoX        oX$X9XOXgX.XqX    |.oX  oX",
"    oX|.{.$XOX8X,X XoX|.          oXoXoXoX{.{.{.{.{.{.oXoXoXoXoXoXoXoXoX{.{.{.{.{.{.oXoXoXoX          |.oX X,X8XOX$X{.|.oX    oX",
"      oX{.rX_.OX{.{.oXoX                            oXoXoX|.oXoXoX|.oXoXoX                            oXoX{.{.OX_.rX{.oX      oX",
"  oXoX{.:X,X,XOX9XoX|.oX                      |.|.oXqX;X;XqXoX  oXqX;X;XqXoX|.|.                      oX|.oX9XOX,X,X:X{.oXoX  oX",
"    oX X5X&X8X$XqXoXoX                        |.oXoX{.9X$X$X].vX].$X2X9X{.oXoX|.                        oXoXqX$X8X&X5X XoX    oX",
"  oX{.$XOX,XOX$XoX|.oX                    oX|.|.oXoX{.9X$X$X].vX].$X$X9X{.oXoX|.|.oX                    oX|.oX$XOX,XOX$X{.oX  oX",
"  oX{.8XrX3XOXqXoX|.                      oXoX|.oXoX{.9X$X$X].vX].$X$X9X{.oXoX|.oXoX                      |.oXqXOX3XrX8X{.oX  oX",
"  oX{.:XOXOX].{.oXoX        qX|.              oXoXoX{.9X$X$X].vX].$X$X9X{.oXoXoX              |.qX        oXoX{.].OXOX:X{.oX  oX",
"  oX:X5XuX@X$XMX|.oX      ;XcX|.              oX|.oX{.9X$X$X].vX].$X$X9X{.oX|.oX              |.cX;X      oX|.MX$X@XuX5X:XoX  oX",
"  oX X:X,XOX XoXoXoX    |.iX$ qX|.    oXqX    oXoXoX{.9X$X$X].vX].$X$X9X{.oXoXoX    qXoX    |.qX$ iX|.    oXoXoX XOX,X:X XoX  oX",
"oXoXOX<X<X5X:XoX|.oX    {.rX,X$X{.    qXiX|.    oXoX$X,X,X$X{.qX{.$X,X,X$XoXoX    |.iXqX    {.$X,XrX{.    oX|.oX:X5X<X<XOXoXoXMX",
"  oX{.].OX].9X%XoX      ].mXXX2X].|.  oX&X2X    <XUXSXHXUX_.UXwXUX_.UXHXSXUX<X    2X&XoX  |.].2XXXmX].      oX%X9X].OX].{.oX  oX",
"oXoX$X8XuXuXOX{.|.oX    OXuX].2X$XoX  |.wX2X  bXwXcXvXvXvXvXvXvXvXvXvXvXvXcXwXbX  2XwX|.  oX$X2X].uXOX    oX|.{.OXuXuX8X$XoXoXMX",
"oXoX{.$XOXOX$X{.|.oX    2X8X2XqX2X{.    0XqXuXiXOX:X#X#X#X#X#X#X#X#X#X#X#X:XOXiXuXqX0X    {.2XqX2X8X2X    oX|.{.$XOXOX$X{.oXoXMX",
"  oXoX].uX.X8X$XoXoX    oX8X].{.$X2X    |.bX8X>X}.sXVX0X$X$X9X9X$X0XVXsXsXCX}.jXNXbX|.    2X$X{.].8XoX    oXoX$X8X.XuX].oXoX  oX",
"  oXoX0X].:XOX$XoX|.    |.eX2X{.$X;X    {.uX>XyXyXyXtX{.{.MXMXMX{.tXIXyXyXyXyXyXDXuX{.    ;X$X{.2XeX|.    |.oX$XOX:X].0XoXoX  oX",
"  oXoX{.eX<XuX].{.|.      OX,X{.{.qX    qXjX>X/.GXsXlX X{.{.{. XtXsXyX*X*X*X*XGX>XjXqX    qX{.{.,XOX      |.{.].uX<XeX{.oXoX  oX",
"    |.;X:X:XOX:X0X{.oX    qX$ 2XoXoX    qX,X>XGXPXtXtXlXlXlXtXVXPXyX*X*X*X*XGXPX}.,XqX    oXoX2X$ qX    oX{.0X:XOX:X:X;X|.    oX",
"  oXoXoX X5XrX@X0XoXoX      XXcXqX|.    qX,X}.}.VXtXtXtXtXtXsXPX*XpXpXpXpX/.PX#X:X,XqX    |.qXcXXX      oXoX0X@XrX5X XoXoXoX  oX",
"      |.$X$X$XvXnXOXoX      oX2X{.oX    qX,X:X#X#X#X#X#X#XCX*X*XpXpXpXpX*X/.}.#X:X,XqX    oX{.2XoX      oXOXnXvX$X$X$X|.      oX",
"    oXoXoX9XvX.XvX{.oXoXoX    oX2X$X    qXjX:X#X#X#X#X#XCX*X*XpXpXpXpXpX*XPX#X#X:XjXqX    $X2XoX    oXoXoX{.vX.XvX9XoXoXoX    oX",
"        oX{.$X$X,XuX,X{.oX      {.XX    qXjX:X}.}.}.}.PX*XpXBXBXBXBXpX*XPX}.}.}.:XjXqX    XX{.      oX{.,XuX,X$X$X{.oX        oX",
"      oX|.oX{.eX8XOX{.$X].oX      {.    qXjX:XsXsXsXPX*XpXBXBXBXBXpX*XPXsXsXsXsX:XjXqX    {.      oX].$X{.OX8XeX{.oX|.oX      oX",
"          oX{. X X>X.X,X{.qXoX    |.    {.8X:XsXsXPX/.pXBXBXBXBXpX*XPXsXsXsXsXsX:X8X{.    |.    oXqX{.,X.X>X X X{.oX          oX",
"        oXoXoXoX#X,X$X$XbX8XoX          oX,X].}.:XPXpXBXBXBXBXpX*XnX}.}.}.}.}.}.].,XoX          oX8XbX$X$X,X#XoXoXoXoX        oX",
"            oXoXoX{.,XrXjX9X].$XLXoX      {.9X$X(.}.>XnXdXdX<X.XuX8X[.KX].].].$X9X{.      oXLX$X].9XjXrX,X{.oXoXoX            oX",
"          oX|.oX   XOX{.$XgX8X{.OX].oX      oX$X:X].OXcXFXFXFXFXFXFXFXcXOX].:X$XoX      oX].OX{.8XgX$X{.OX X  oX|.oX          oX",
"XXqX          oX|.oXoX$XdX,X XOX<XiXOXoX      oX{.qXoXoX|.|.7XqX7X|.|.oXoXqX{.oX      oXOXiX<XOX X,XdX$XoXoX|.oX          qXXX0X",
"XXqXoX      oXoXoX  oX9X{.9X@XDX>X@X.X,X%X                                          %X,X.X@X>XDX@X9X{.9XoX  oXoXoX      oXqXXX0X",
"9X9XqX          oXoXoXoXoX}.tX9XdX8X,XOX{.LX|.                                  |.LX{.OX,X8XdX9XtX}.oXoXoXoXoX          qX9X9X0X",
"qX2X2X|.        oXoX  oXMXoXoX8XOX9X5X$X  $ ZX  oXxXOX  iXxX  qX  xXiX  OXxXoX  ZX$   $X5X9XOX8XoXoXMXoX  oXoX        |.2X2XqX0X",
"{.qXXX;X            oX  oX  {.$X  qXgX$XoXuX.XMX XrX:XoX$ bX2XOX2XbX$ oX:XrX XMX.XuXoX$XgXqX  $X{.  oX  oX            ;XXXqX{.lX",
"2XXXqX|.oX$X,X8XbXiXwXAX{.    oXoX].rXOXoX}.uX{.{.<XOXqX].,X9X9X9X,X].qXOX<X{.{.uX}.oXOXrX].oXoX    {.AXwXiXbX8X,X$XoX|.qXXX2X0X",
"qXoXoX,XwXJXZXgX&XrXbX;X      qX2XKXxX{.  <X.X  oXrX$XoXcX8XoX9XoX8XcXoX$XrXoX  .X<X  {.xXKX2XqX      ;XbXrX&XgXZXJXwX,XoXoXqX{.",
"  oX3XrXdXOX$X8X,X      oX    |.XX$ vX].$XOXOX].OXOX:XOXOXOX$XOX$XOXOXOX:XOXOX].OXOX$X].vX$ XX|.    oX      ,X8X$XOXdXrX3XoX  oX",
"$X<X8XOX#XOX$XOXOX,XrXwXxXjX    $X,X$X9X$X9X9X9X9X X9X9X9X9X9X9X9X9X9X9X9X X9X9X9X9X$X9X$X,X$X    jXxXwXrX,XOXOX$XOX#XOX8X<X$X0X",
"uX,XOXOXOXOX:X:XOX:X:XOX,X].    OX8X$X$X].$X$XOX$X0X$X:X$X$X:X$X:X$X$X:X$X0X$XOX$X$X].$X$X8XOX    ].,XOX:X:XOX:X:XOXOXOXOX,XuXDX",
"OX].$X0X$X$X$X#X$X$X$X0XOX].    :X8X$X$X$X$X#X#X$X$X}.OX0X#XOX#XOX#X0XOX}.$X$X#X#X$X$X$X$X8X:X    ].OX0X$X$X$X#X$X$X$X0X$X].OX:X",
"OX9X        oXoXoX              $X,X0X9XtXtX0X0XtXtXtX0X0XtXtX0XtXtX0X0XtXtXtX0X0XtXtX9X0X,X$X              oXoXoX        9XOX:X",
"9X                              eX<X}.#X}.>X,XOX}.,X}.,X}.}.}.vX}.}.}.,X}.,X}.OX,X>X}.#X}.<XeX                              9X0X",
"oX      oXqXLX|.qXoX|.oXoXoX     X:X9X X9X9X9X9X9X X9X$X X9X9X9X9X9X X$X9X X9X9X9X9X9X X9X:X X    oXoXoX|.oXqX|.LXqXoX      oXMX",
"$XKXcXcX$ $ $ $ $ $ [.[.$ $ $ XXlXoXoXoXoXoXoXoXoXoXoXoXoXoXoXoXoXoXoXoXoXoXoXoXoXoXoXoXoXoX9X2X[.[.$ [.[.$ $ $ $ $ $ cXcXKX$X7X",
"9X[.FXcX].KXcX8X8X,X,XOX8X8X,X8X,X,X8X,X,X8X,X8X,X8X,X8X,X8X8X8X8X,X8X,X8X,X8X,X,X8X,X,X8X,X,XOX,XOX,X,XOX,X8X8XcXKX].cXFX[.9X7X",
"9X,X8XOX].OX.X.X@XuX5XOX@X@XuX@XuX5X@XuX5X@XuX@XuX@XuX@XuX@X@X@X@XuX@XuX@XuX@XuX5X@XuX5X@XuX5XOX5XOXuX5XOXuX@X.X.XOX].OX8X,X9X7X",
"9XvXvX$X@X.X{.        -X                                                                      -X  -X    -X      {..X@X$XvXvX9X7X",
"9X$X].8XgXMX  FX3XiX3XxX3X3XiX3XiX3X3XiX3X3XiX3XiX3XiX3XiX3X3X3X3XiX3XiX3XiX3XiX3X3XiX3X3XiX3XxX3XxXiX3XxXiX3XFX  MXgX8X].].9X7X",
"9X$X$XZX&X    dX>X}.@X8X>X>X}.>X}.@X>X}.@X>X}.>X}.>X}.>X}.>X>X>X>X}.>X}.>X}.>X}.@X>X}.@X>X}.@X8X@X8X}.@X8X}.>XdX    &XZX].$X9X7X",
"9X$X$X&XiX  oX@XeX:X,X,XeX,X:XeX:X,XeX:X,XeX:XeX:XeX:XeX:XeXeXeXeX:XeX:XeX:XeX:X,XeX:X,XeX:X,X,X,X,X:X,X,X:XeX@XoX  iX&X].$X9X7X",
"9X$X$X&X8X  |.uXOX].,X,XOX,X].OX].,XOX].,XOX].OX].OX].OX].OXOXOXOX].OX].OX].OX].,XOX].,XOX].,X,X,X,X].,X,X].OXuX|.  8X&X].$X9X7X",
"9X$X$X3XjX  |.8XOX].OX,XOX,X].OX].OXOX].OXOX].OX].OX].OX].OXOXOXOX].OX].OX].OX].OXOX].OXOX].OX,XOX,X].OX,X].OX8X|.  jX3X].$X9X7X"
};
